<?xml version="1.0" encoding="utf-8"?>
<!-- Generator: Adobe Illustrator 16.0.0, SVG Export Plug-In . SVG Version: 6.00 Build 0)  -->
<!DOCTYPE svg PUBLIC "-//W3C//DTD SVG 1.1//EN" "http://www.w3.org/Graphics/SVG/1.1/DTD/svg11.dtd">
<svg version="1.1" id="Layer_1" xmlns="http://www.w3.org/2000/svg" xmlns:xlink="http://www.w3.org/1999/xlink" x="0px" y="0px"
	 width="75px" height="75px" viewBox="0 0 75 75" enable-background="new 0 0 75 75" xml:space="preserve">
<path fill-rule="evenodd" clip-rule="evenodd" d="M-398.389,6.069c-1.904-2.245-5.273-0.83-5.273-0.83
	c1.611-2.686-1.806-6.005-1.806-6.005c-3.417-2.49-1.563-4.589-1.563-4.589l2.832-3.955c2.099-3.759-4.053,1.514-4.053,1.514
	c-2.001,1.757-2.636,0.683-2.636,0.683c-0.684-1.171,1.513-2.441,1.513-2.441c6.201-3.808,5.126-4.54,5.126-4.54
	c-0.537-1.66-7.616,2.832-7.616,2.832l5.712-4.638c3.466-4.297-5.176,0.732-5.176,0.732l4.15-3.564
	c2.148-1.611-4.052,0.634-4.052,0.634c4.425-2.813,8.788-7.812,8.788-7.812c6.104-7.616-0.977-11.278-0.977-11.278
	c-5.761-2.246-10.155,3.955-10.155,3.955c-1.319,1.367-2.979-1.807-2.979-1.807c-1.318,3.271,2.1,5.908,2.1,5.908
	c-4.199,4.345,0.391,7.167,0.391,7.167c-0.44-2.989,1.367-3.651,1.367-3.651c3.027-1.074,3.158-3.043,3.158-3.043
	c3.157,1.921,4.557-1.791,4.557-1.791c-2.051,0.846-3.287-0.814-3.287-0.814c-0.944-2.213,0.895-3.581,0.895-3.581
	c2.734-1.757,4.833,1.514,4.833,1.514c2.685,4.736-9.081,12.108-9.081,12.108c-4.785,3.613-3.515,5.664-3.515,5.664
	c-4.297,2.002-0.977,5.517-0.977,5.517c-1.221,2.832,1.269,3.808,1.269,3.808c-0.342,3.711,3.32,3.369,3.32,3.369l3.076,3.418
	c3.857,4.003,0.781,5.956,0.781,5.956c-2.587,1.417-3.564-0.83-3.564-0.83c-1.709-2.441-3.58-3.027-3.58-3.027
	c-7.942-2.539-7.746-5.013-7.746-5.013c-0.325-4.882-2.995-8.137-2.995-8.137c-1.367-2.017-0.277-4.549-0.277-4.549
	c1.196,0.805,2.816,3.963,2.816,3.963c0.13-2.148-0.863-5.697-0.863-5.697c2.295-0.683,1.953,7.958,1.953,7.958
	c1.709-4.346,0.391-12.352,0.391-12.352c1.514,2.587,1.953,8.642,1.953,8.642c1.513-4.541-0.732-10.692-0.732-10.692
	c2.343,0.635,2.978,6.054,2.978,6.054c1.269-10.692-4.98-12.792-4.98-12.792c1.416-0.976,3.417-0.244,3.417-0.244
	c-0.244-1.513-2.685-1.806-2.685-1.806c0.635-1.514,3.32-2.539,3.32-2.539c-1.758-1.562-4.199,0.244-4.199,0.244
	c0.83-2.734,3.515-3.613,3.515-3.613c-1.903-1.416-4.638,0.586-4.638,0.586c0-1.807,3.207-2.393,3.207-2.393
	c-2.832-1.074-5.892,1.237-5.892,1.237c-7.552-1.172-7.031,1.302-7.031,1.302c-4.427,0.912-2.734,4.882-2.734,4.882
	c1.123,0.879,2.929-0.244,2.929-0.244c2.344-0.732,2.539,1.171,2.539,1.171c0.13,0.283,0.192,0.524,0.204,0.73
	c-0.18,0.017-0.366,0.026-0.559,0.032c-0.212,0.007-0.43,0.027-0.654,0.026c-0.225,0-0.455,0.001-0.691,0.002
	c-0.235-0.008-0.475-0.017-0.72-0.025c-0.244-0.009-0.492-0.037-0.742-0.055c-0.25-0.019-0.501-0.062-0.756-0.088
	c-0.254-0.03-0.507-0.083-0.763-0.123c-0.255-0.048-0.508-0.108-0.762-0.162c-0.504-0.126-1.006-0.262-1.488-0.438
	c-0.484-0.165-0.948-0.362-1.392-0.563c-0.437-0.215-0.86-0.426-1.242-0.66c-0.383-0.231-0.739-0.462-1.055-0.694
	c-0.635-0.459-1.127-0.895-1.452-1.22c-0.327-0.324-0.493-0.529-0.493-0.529c0,0,0.036,0.056,0.107,0.157
	c0.073,0.099,0.179,0.248,0.331,0.423c0.151,0.175,0.337,0.387,0.567,0.614c0.228,0.229,0.494,0.48,0.804,0.73
	c0.306,0.255,0.655,0.513,1.038,0.764c0.38,0.254,0.801,0.492,1.246,0.722c0.45,0.216,0.918,0.438,1.416,0.609
	c0.493,0.184,1.006,0.329,1.523,0.462c0.261,0.054,0.521,0.113,0.783,0.16c0.263,0.039,0.522,0.09,0.784,0.119
	c0.521,0.068,1.036,0.097,1.534,0.114c0.25,0.001,0.495,0.008,0.735,0.003c0.239-0.011,0.474-0.021,0.701-0.032
	c0.229-0.01,0.449-0.038,0.662-0.057c0.183-0.017,0.359-0.037,0.53-0.062c-0.127,0.886-1.317,0.945-1.317,0.945
	c-4.15,0.195-4.833,0.782-4.833,0.782c-2.002,3.808,4.98,1.757,4.98,1.757c3.271,0.585-0.684,2.929-0.684,2.929
	c-6.786-1.025-10.497,2.441-10.497,2.441c-5.371,0.635-9.862-7.958-9.862-7.958c2.49-1.611,1.416-2.685,1.416-2.685
	c2.002-2.93-1.221-5.176-1.221-5.176c1.367,2.295-0.195,3.467-0.195,3.467c-0.634,0-2.343,1.563-2.343,1.563
	c1.025-3.076-0.244-3.905-0.244-3.905c-1.465-3.809-5.419-1.319-5.419-1.319c2.148-0.635,3.467,1.611,3.467,1.611
	c-1.487,1.28-0.696,3.342-0.108,4.437c-0.864-1.057-1.846-0.531-1.846-0.531c-2.294-2.979-5.028,0.244-5.028,0.244
	c1.758-0.781,3.076,0.683,3.076,0.683c-0.439,1.123,2.197,2.002,2.197,2.002c1.464,0.293,0.537,1.367,0.537,1.367
	c-2.197,1.22-4.621-2.588-4.621-2.588c-1.302,6.575,4.882,5.338,4.882,5.338c0.651,1.563,2.669,2.474,2.669,2.474
	c-1.367,2.474,1.562,2.799,1.562,2.799c-0.39,2.083,1.238,1.433,1.238,1.433c-1.498,3.579,2.148,3.125,2.148,3.125
	c2.474,2.539,4.524,2.066,4.524,2.066c-4.443,5.957-8.935,4.199-8.935,4.199c-0.293-3.076-1.758-2.636-1.758-2.636
	c-2.783-2.734-5.517,0.391-5.517,0.391c2.734-0.684,3.223,0.976,3.223,0.976c-0.244,0.879,1.562,2.881,1.562,2.881
	c-1.269-1.172-3.076-0.538-3.076-0.538c-2.978-2.831-5.126,0.863-5.126,0.863c1.823-1.562,4.101,0.846,4.101,0.846
	c-0.26,1.367,3.906,1.432,3.906,1.432c-4.101,0.261-3.646,2.055-3.646,2.055c-4.167,0.296-2.604,3.348-2.604,3.348
	c0.261-2.018,3.06-1.236,3.06-1.236c0.847,1.888,3.516-1.498,3.516-1.498c1.497,3.255-0.781,4.166-0.781,4.166
	c4.491,2.409,4.947-5.272,4.947-5.272c5.664,3.255,9.764-3.711,9.764-3.711c0.586,1.042,0.326,1.953,0.326,1.953
	c1.433-1.042,1.627-1.823,1.627-1.823c2.148,3.45,1.498,5.924,1.498,5.924c1.887-1.237,1.887-3.58,1.887-3.58
	c0.521,3.58,4.818,4.557,4.818,4.557c-1.042,1.042-5.599,0.847-5.599,0.847c-6.9,0.521-3.32,4.426-3.32,4.426
	c5.142,4.296,0.813,6.966,0.813,6.966c-4.296,2.148-5.517-1.416-5.517-1.416c-0.39-2.588-2.587-1.514-2.587-1.514
	c-3.173-2.832-5.615,1.464-5.615,1.464c1.22-1.659,4.394,0.098,4.394,0.098c-0.195,1.074,1.318,3.32,1.318,3.32
	c-3.515-2.001-4.101-0.586-4.101-0.586c-4.004-1.221-3.271,3.271-3.271,3.271c0.537-2.49,2.998-1.025,2.998-1.025
	c-0.126,1.513,4.033,1.807,4.033,1.807c-6.103,2.392-3.466,6.444-3.466,6.444c-0.049-2.49,2.88-2.783,2.88-2.783
	c2.1,0.538,2.93-3.027,2.93-3.027c2.783,3.369-0.732,5.81-0.732,5.81c6.689,0,4.882-6.005,4.882-6.005c3.971,5.142,3.385,0,3.385,0
	c2.344,2.669,1.693-1.757,1.693-1.757c2.669,2.539,2.669,1.107,2.669,1.107c-0.781-2.995,1.823-1.238,1.823-1.238
	c2.083,2.148,2.474-1.041,2.474-1.041c0.717-3.385-2.604-6.966-2.604-6.966c3.775,2.734,8.007,0.261,8.007,0.261
	c4.296,8.983,0.423,12.563,0.423,12.563c3.759-0.537,4.199-3.743,4.199-3.743c4.818,2.148,4.818,4.199,4.818,4.199
	c0.163,2.929-2.019,1.595-2.019,1.595c-3.613-3.873-6.087,0.879-6.087,0.879c4.199-1.92,4.199,1.627,4.199,1.627
	c-4.46-1.919-6.477,2.279-6.477,2.279c3.483-2.181,6.64,0.423,6.64,0.423c-3.059,4.004,0.13,6.25,0.13,6.25
	c0.097-4.948,3.482-5.99,3.482-5.99c3.548,0.846,1.595,4.85,1.595,4.85c4.558-0.977,1.677-6.021,1.677-6.021
	c2.734-0.537,3.857-2.539,3.857-2.539c5.566-0.439,0.439-1.709,0.439-1.709c0.585-2.246-0.928-4.638-0.928-4.638
	c5.175-2.343-0.489-1.367-0.489-1.367c-0.585-1.758-5.26-2.799-5.26-2.799c-3.406-3.971-0.305-8.854-0.305-8.854
	c9.439,10.481,15.037,1.839,15.037,1.839c5.176,3.71,6.201,0.097,6.201,0.097C-395.899,8.754-398.389,6.069-398.389,6.069z"/>
<g>
	<path d="M-233.804-1.752c0,0,0.438,0.971,0.984,1.171c0.543,0.202-0.194,1.037-0.219,1.042c-0.019,0.002-1.313,1.457-1.46,1.628
		c0,0-1.346-2.04-0.146-3.865C-234.645-1.776-234.239-2.072-233.804-1.752z"/>
	<path d="M-236.378-7.223c0.002,0.022,0.043,0.813,0.397,1.523c0.245,0.49-0.65,0.673-0.65,0.673s-1.157,0.188-2.844,1.014
		c0,0-0.425-2.388,2.611-3.596C-236.863-7.611-236.416-7.759-236.378-7.223z"/>
	<path d="M-232.03-14.185c0,0-0.751,0.745-0.872,1.183c-0.111,0.402-0.691,0.362-0.691,0.362s-2.135-0.725-2.669-0.581
		c0,0,0.92-2.558,3.915-1.737C-232.348-14.958-231.591-14.676-232.03-14.185z"/>
	<path d="M-204.792,31.053c0,0,0.869,0.613,1.439,0.513c0.573-0.103,0.357,0.993,0.34,1.005c-0.014,0.013-0.398,1.922-0.439,2.142
		c0,0-2.193-1.079-2.081-3.259C-205.533,31.454-205.329,30.993-204.792,31.053z"/>
	<path d="M-210.156,27.979c0.01,0.019,0.388,0.714,1.014,1.205c0.432,0.335-0.296,0.888-0.296,0.888
		c0-0.002-0.971,0.662-2.135,2.133c0,0-1.41-1.977,0.813-4.372C-210.76,27.833-210.422,27.51-210.156,27.979z"/>
	<path d="M-208.513,20.944c0,0-0.394,0.985-0.331,1.434c0.062,0.414-0.493,0.607-0.493,0.607s-2.245,0.186-2.677,0.529
		c0,0-0.177-2.711,2.898-3.15C-209.115,20.364-208.307,20.32-208.513,20.944z"/>
	<path d="M-228.019,15.08c0,0,0.296,1.024,0.804,1.299c0.512,0.276-0.34,0.999-0.359,0.999c-0.021,0-1.509,1.253-1.681,1.403
		c0,0-1.042-2.209,0.404-3.848C-228.851,14.933-228.402,14.7-228.019,15.08z"/>
	<path d="M-229.635,9.319c-0.007,0.021-0.146,0.803,0.04,1.574c0.128,0.529-0.787,0.512-0.787,0.512s-1.17-0.084-2.995,0.336
		c0,0,0.127-2.421,3.357-2.908C-230.02,8.833-229.554,8.79-229.635,9.319z"/>
	<path d="M-225.235,3.833c0,0-0.92,0.527-1.147,0.917c-0.214,0.359-0.768,0.167-0.768,0.167s-1.871-1.251-2.422-1.251
		c0,0,1.554-2.234,4.231-0.657C-225.341,3.004-224.684,3.473-225.235,3.833z"/>
	<path d="M-223.663,3.983c2.427-0.786,2.106,2.531,2.23,2.743c0.282,0.466,0.301,2.169,4.045,2.34
		c3.736,0.168,4.887,0.297,6.29,0.297c0,0-0.278-1.245-0.795-2.959c-0.865-2.862-2.022-7.033-0.904-8.946
		c1.784-3.064,6.418-0.809,6.504-0.765c0.085,0.041,2.384,1.316,4.891,4.122c0,0-1.725,2.796-1.979,3.287
		c0.002,0-1.084-1.67-2.87-0.946c-1.785,0.724-1.403,2.594-1.529,4.039c0,0,0.808,2.85-0.34,6.082
		c-1.148,3.232-3.743,3.188-3.743,3.188s0.948-1.097,0.595-2.293c-0.214-0.726-0.724-0.13-0.724-0.13
		c0-0.002-1.188,2.807-4.081,2.423c0,0,1.229-1.105,0.852-2.552c-0.254-0.976-0.894-0.296-0.894-0.296s-1.572,3.4-4.59,2.464
		c0,0,1.369-0.574,1.104-2.294c-0.084-0.553-0.936-0.427-1.148-0.213c-0.213,0.213-0.341-0.128-1.488,1.486
		c-1.147,1.617-1.277,2.044-2.634,2c-1.362-0.043-2.212-2.127-2.212-2.127s-0.256-0.892,0.254-1.616
		c0.509-0.722,1.742-0.806,1.998-0.892c0.257-0.084,0.555-0.297,0.042-0.684c-0.508-0.38-1.318,0.173-1.57,0.257
		c-0.257,0.083-1.915,0.979-2.298-0.339c-0.381-1.317-0.424-2.638,0.214-3.404c0.634-0.764,1.02-0.72,1.742-0.551
		c0.723,0.171,1.232,1.063,1.957,1.149c0.721,0.083,0.427-0.553,0.339-0.598c-0.085-0.043-1.316-0.954-1.533-1.231
		C-225.94,7.023-227.329,5.174-223.663,3.983z"/>
	<path d="M-200.173,29.518c0.477-1.225,0.045-1.999,0.472-3.318c0.424-1.319,1.019-1.362,1.356-1.231
		c0.342,0.127,0.979,0,1.915,2.422c0,0,2.127-4.209,0.215-5.739c0,0,0.934-1.022,2.976-0.979c2.043,0.041,3.401-2.977,3.401-2.977
		s-1.737,0.566-3.359,0.235c-0.924-0.188-0.213-0.702-0.213-0.702s0.404-0.553,2.933-0.85c1.999-0.236,2.639-3.104,2.639-3.104
		c0.003,0-2.581,0.759-3.361,0.255c-0.685-0.445,0.776-0.916,1.002-0.958c0.575-0.107,3.764-1.063,3.889-3.316
		c0,0-1.509-0.596-4.464,0.064c-2.769,0.617-4.722,0.893-5.612,0.893c-0.895,0-0.979-0.593-0.722-0.936
		c0.252-0.341,1.36-2.041,1.699-4.764c0,0,6.633,6.084,13.097,1.15c2.783-2.123,6.449-6.188,1.148-14.667
		c-0.638-1.023-1.616-2.851-0.255-4.935c0,0,0.667-1.318,2.466-0.935c1.56,0.33,1.743,2.084,0.934,3.528c0,0,3.68,0.343,3.914-4.039
		c0.209-3.911-3.786-4.422-3.786-4.422s-5.78-1.276-6.293,4.379c0,0-1.648-4.124,3.528-5.314c1.351-0.31,3.826-1.487,4.764-2.295
		c0.751-0.649,5.551-3.828,2.231-8.802c0,0-0.104,0.913-0.531,1.72c-0.529,0.985-1.581,2.669-3.226,3.556
		c-2.049,1.104-3.936,1.96-4.001,2.441c0,0-1.784-0.534,2.933-2.894c3.598-1.799,4.595-6.774,1.173-9.838
		c0-0.004,0.437,4.847-2.66,6.354c-1.955,0.947-4.254,2.955-4.677,3.677c0,0-1.13-0.894,2.934-3.571
		c2.749-1.813,2.678-6.422,0.085-7.059c0,0,0.582,2.207-2.21,4.293c-2.276,1.7-4.979,4.508-5.401,5.569c0,0-2.167,3.616,1.787,7.356
		c0,0-0.554,0.769-0.554,1.405c0,0.21-0.51,2.208,0.807,3.955c0,0-4.763-1.913-5.568,1.104c0,0-0.512,1.743,1.147,2.934
		c0,0,2.082-3.017,5.188-0.594c0,0-4.51-1.106-4.425,1.827c0,0-0.252,1.15,1.108,2.338c0,0,1.06-2.042,4.547-1.105
		c0,0-4.463,0.041-3.784,3.486c0,0,0.278,1.468,1.83,2.211c0,0-0.057-1.512,1.642-1.704c0.715-0.081,1.552-0.031,2.459,0.728
		c1.014,0.845,1.058,2.356,0.756,3.549c-0.267,1.051-0.821,1.843-0.882,1.912c-0.149,0.174-2.052,3.51-7.547,1.47
		c-0.719-0.27-1.812-1.129-2.556-2.124c-4.482-5.993-5.565-13.122-5.565-13.122s-1.679-0.34-3.19-2.188c0,0-0.788,1.295-0.744,2.615
		c0,0-3.998-0.257-4.654-3.551c0,0-3.465,0.107-5.252-2.188c0,0,0.635-0.512,0.681-0.556c0.008-0.007-1.213,0.017-2.423-0.785
		c-0.183-0.12-1.806,4.171-1.894,4.847c-0.127,0.979-2.133,2.351-8.887,3.741c0,0-3.02,0.597-2.889-1.956
		c0,0,0.038-1.806-1.745-2.157c-1.787-0.353-2.597,2.072-2.597,2.072c-0.254,0.893-0.126,1.489,1.063,1.957
		c1.19,0.469,0.3,0.935-0.085,0.806c-0.383-0.126-1.444-1.146-2.676-0.509c-1.233,0.638-1.146,2.083-1.19,2.337
		c-0.043,0.255-0.087,2.043,1.4,2.425c0,0,0.735,0.292,1.34-0.236c0.788-0.681,2.233-0.531,2.233-0.531s-0.301,0.767-1.829,0.979
		c-1.529,0.214-1.188,1.915-1.104,2.039c0.084,0.128,0.594,2.086,2.596,2.129c1.995,0.042,2.718-2.001,2.806-2.253
		c0.08-0.257,0.424-1.447,1.36-1.576c0.936-0.125,0.892,0.722,0.892,0.722s0,1.236-0.257,1.787c0,0,2.339,0.639,3.532-3.658
		c0,0,0.808-1.314,2.252,0.639c1.448,1.955,4.508,0.425,4.551-0.339c0,0-1.755-0.29-1.826-1.699c-0.046-0.81,0.59-0.597,0.719-0.428
		c0.128,0.17,2.679,2.807,5.145,1.106c0,0-0.881-1.227-1.443-1.869c-0.607-0.693,0.244-0.812,0.54-0.734
		c0.539,0.134,9.919,1.199,11.962,6.643c0,0,0.978,1.146-0.087,3.231c-1.063,2.085-4.251,4.591-4.295,13.69
		c0,0-0.212,1.575,1.87,1.021c0,0,2.704-0.425,5.19-1.572c1.102-0.51,0.847,0.551,0.808,0.511c-0.045-0.045-0.599,2.933-3.486,5.44
		c0,0-0.468,0.98-3.83,0.297c0,0-2.421-1.317-3.101,0.384c0,0-0.3,0.808-0.469,1.744c-0.172,0.935,0.084,1.391,1.784,1.361
		c0.604-0.01,0.383,0.604,0,0.553c-0.042-0.008-3.108-0.127-3.487,1.146c-0.146,0.503-0.431,0.86,0.173,1.913
		c0.507,0.896,1.614,1.532,1.573,1.532c-0.043,0,0.976,0.384,1.614-0.126c0-0.002,1.191-0.852,1.573-1.744
		c0.563-1.315,0.851,0.042,0.594,0.425c-0.255,0.382-2.18,1.307-0.604,2.572C-204.645,30.049-201.319,32.484-200.173,29.518z"/>
	<path d="M-224.664-36.942c0,0,1.617,0.424,2.084,0.298c0.471-0.128,0.341-0.512,0.341-0.512s0.262-1.967-1.912-2.849
		c-0.359-0.143-0.878,2.049-0.767,2.468C-224.906-37.498-224.918-37.07-224.664-36.942z"/>
	<path d="M-230.106-36.306c0,0-1.146,0.427-1.445,1.063c-0.298,0.639-0.978-0.042-0.978-0.042s-0.894-1.192-1.955-1.913
		c-1.063-0.723,3.219-1.35,4.336-0.043C-229.381-36.346-229.976-36.39-230.106-36.306z"/>
	<path d="M-234.867-30.565c0,0,0.639,0.511,0.301,2.552c0,0-0.045,0.297-0.723,0.469c-0.684,0.17-1.026,0.424-2.341,0.595
		c-1.319,0.171,1.955-3.402,1.955-3.402S-235.08-30.691-234.867-30.565z"/>
	<path d="M-215.477-18.21c0,0-1.298,2.763-1.511,4.037c0,0-0.181,0.731-0.808,0.753c-1.057,0.037-2.837-1-3.25-2.813
		c0,0-0.388,1.828-1.746,2.763c0,0-2.724-1.786-0.893-5.91c0,0-0.214-1.022-1.149,0.169c-0.932,1.19-1.489,1.274-1.572,1.274
		c0,0-1.997-1.996-0.126-4.805c0,0,0.083-0.593-0.427-0.636c0-0.001-3.53,0.551-4.124-1.362c0,0,0.532-0.882,2.574-1.308
		c0,0,0.154,0.004,0.239-0.118c0.165-0.23-0.026-0.565-0.54-0.498c0,0-4.89,0.456-5.124-1.754c0,0-0.115-0.522-0.031-1.307
		c0.06-0.557,0.415-1.479,1.011-1.733c0.597-0.257,2.805,0.511,2.805,0.511s-2.04-1.361-1.617-2.678
		c0.429-1.318,1.319-2.083,2.299-2.127c0.979-0.042,1.487,0.342,1.829,0.809c0.339,0.469,0.594,0.85,0.68,1.869
		c0.085,1.023,0.807-0.468,0.636-0.977c-0.167-0.508-0.423-2.043,0.599-2.255c1.02-0.212,2.74-0.231,3.188,0.767
		c0.396,0.887,0.512,1.702,0.043,3.231c-0.666,2.179-1.571,1.977-0.81,4.804C-222.402-24.177-215.436-18.21-215.477-18.21z"/>
	<path d="M-206.271-31.946c0,0,0.675,0.627-0.255,1.329c-0.794,0.599-2.276,0.182-2.552,0.182c-0.278,0-1.301,0.019-3.104,0.912
		c-1.809,0.894-4.742,0.513-5.484-0.083c0,0-3.359-1.829-0.297-6.423c0,0,0.978-1.099,1.614,0c0.045,0.079,0.132,0.598,0.107,0.831
		c-0.185,1.524,1.697,2.911,4.017,2.848C-209.905-32.416-206.791-32.721-206.271-31.946z"/>
	<path d="M-210.121-36.88c0,0,3.274-0.391,4.126-0.295c0.381,0.041,0.574,0.116,0.788,0.36c0.215,0.249,0.416,0.915,1.017,1.428
		c0.569,0.486,1.599,0.917,2.053,1.039c1.285,0.339,1.511-0.341,1.531-0.341c0.022,0,0.34-0.615-0.404-0.935
		c-0.743-0.32-0.946-0.023-2.179-0.107c-1.232-0.084-1.276-0.744-1.276-0.744s-0.382-0.829-0.041-1.893
		c0.338-1.061,1.529-0.955,1.7-0.933c0.169,0.021,3.399-0.488,5.782,0.892c0,0,2.318-1.084,3.999-0.638c0,0,0.766,1.427-0.469,4.211
		c0,0,1.021,0.804,1.49,2.252c0.466,1.445,0.915,1.914,1.189,2.063c0.274,0.147-1.086,1.593-2.045,1.87
		c0.002,0,0.982,1.934,0.959,4.209c0,0-1.297,0.469-2.337,0.32c0,0,0.975,1.807,1.061,4.039c0,0-0.978,0.318-2.487,0.063
		c0,0,0.488,2.34,0.322,3.72c0,0-1.192,0.681-2.532-0.105c-1.339-0.788-0.086,1.485-0.086,1.485s0.724,1.258,1.169,2.319
		c0,0-1.933,0.553-3.251-0.681c-1.317-1.232-2.148-1.851-2.148-1.851s-1.128,1.064-1.191,2.785c0.002,0-3.824-0.443-3.144-3.719
		c0,0-2.87,0.978-5.103-1.168c0,0,0.996-0.36,0.723-1.151c0,0-4.253,0.32-4.467-3.019c0,0,2.955-0.956,4.146-0.53
		c0,0-1.338-1.167-1.466-2.402c0,0,2.141-0.27,2.814-0.37c1.558-0.236,2.9-0.545,3.292-1.055c0.344-0.445,0.666-0.572,0.962-0.583
		c0.637-0.025,0.524,0.014,0.82,0.052c0.479,0.064,2.271,0.096,3.893-0.084c1.025-0.116,1.729-0.781,1.783-1.128
		c0.003-0.02,0.071-0.507-0.533-0.296c-0.524,0.183-0.138,0.596-1.658,0.88c-0.65,0.125-2.349,0.203-4.464,0.021
		c0,0-0.531-0.01-1.258,0.182c-0.719,0.194-1.357-0.084-1.357-0.062c0,0.021-1.701-0.108-1.914-2.253c0,0-0.276-0.83,0.978-0.662
		c0,0,2.829,0.374,3.658-0.352c0,0,0.313-0.147,0.522-0.88c0.189-0.663,0.024-1.526-1.546-1.999c0,0-1.421-0.297-2.188-0.064
		c-0.764,0.236-1.765-0.061-1.806-0.74C-210.735-34.411-211.182-36.708-210.121-36.88z"/>
</g>
<path d="M-324.876-21.801c-0.515,1.029-1.545,2.06-1.203,3.092c1.375-1.203,3.78-0.86,5.325-1.032
	c-1.201,1.889-2.92,3.78-2.233,6.012l4.637-3.092c0.344-1.375,0.689-3.264,1.03-3.778c1.033,2.747-1.03,6.354,0.517,9.275
	c1.202-1.546,2.061-4.124,4.295-3.95c0.859,2.232,2.061,4.464,3.778,6.184l0.344-4.123l2.403,1.889
	c0.519-1.718-1.199-3.95,0.345-5.497c0.688,0.343,1.546,0.687,2.233,1.546l0.517-0.687c0-0.859-0.517-1.376-0.86-2.234
	c1.374-2.061-1.89-7.902,2.748-7.042l-1.545-4.638c-1.718-2.576,2.404-2.062,2.404-3.952c-0.171-0.687-0.687-0.342-1.203-0.342
	c-1.717-1.72-4.294-2.921-3.605-5.842c-2.064,3.09-6.357,0.174-8.762,2.406c0,2.573-2.92,2.232-4.639,2.749
	c-1.889,0.858-0.169,2.576-0.343,3.777c-2.23-0.17-3.606,1.547-5.495-0.342c-0.516,0.342-0.516,0.858-0.862,1.204
	c1.376,1.544,3.953,1.031,5.844,1.031c0,0.683-0.173,1.371,0.513,1.716c1.204,0.345,2.062-0.345,3.092-0.172
	c0.858,0.345,0.688,1.03,0.688,1.718C-317.833-22.661-321.785-24.55-324.876-21.801L-324.876-21.801z M-338.79-30.733
	c0.344-1.033-0.687-2.405-0.171-3.782c1.375-3.607,5.325-1.2,6.183,1.201c0.517,4.297,1.889,8.936,6.185,10.824
	c0,0.344-0.174,0.86,0.172,1.031c-1.375,1.548-2.921,2.75-4.294,4.639c-1.545-1.546-2.233-3.436-2.75-5.325
	c-0.858-1.031-1.715,0.687-2.402-0.344c1.202-1.375,1.544-3.435,0.857-5.152c-1.03-0.516-0.857-2.233-2.404-1.544l-0.344,0.17
	C-338.618-29.36-337.415-30.906-338.79-30.733L-338.79-30.733L-338.79-30.733z M-295.502-26.098
	c6.869,2.578,3.09,12.197,6.011,17.177c-2.06-1.027-3.605-2.577-4.637-4.637c-0.688,0.344,0,1.375-1.031,1.375
	c-1.89-2.406-2.233-4.812-1.547-7.729c-1.888-1.031-1.715,1.888-2.059,3.091c-1.547,6.873,6.01,17.006-2.923,21.301
	c-1.717,1.544-0.343,4.293-1.546,6.183c-1.203,2.576-4.293,4.81-2.749,8.247c0.859,1.716,2.578,1.203,3.781,2.231
	c0.857-1.028,1.374,0,2.061,0.687c-0.171,0.174-0.342,0.345-0.171,0.518c0.513,0.685,0,2.404,1.547,3.092
	c0.171,0.856-0.69,1.371-1.376,1.544l1.376,1.202c-3.266,0.86,0.171,7.042-5.327,4.639c-0.345,0.86-1.031,1.715-1.891,1.891
	c-0.513-0.346,0-1.891-1.199-1.55l-0.69,0.691c-1.201-0.348,0.174-2.238-1.546-1.891c-0.169-1.719,0.86-3.608,2.236-4.982
	c1.199,0.859,1.375,2.404,3.09,2.231c1.374-1.201,0-2.919,0-4.293c-1.715-3.606-6.012,0.345-8.416-2.231
	c-0.859-2.063-1.547-4.125-1.547-6.531c-4.638,1.721-8.244-7.728-12.367-1.201c-0.515,1.546,0.173,3.607-1.718,4.639
	c-1.546,0.173-2.404,0.173-3.78-0.342c-1.716,0.17-1.888,2.405-3.435,2.749c-0.859-0.688,1.888-2.233-0.343-2.064l-1.202,1.203
	l-0.344-2.406l-1.203,0.518c0.859-1.545-0.515-4.466,2.232-5.498c2.406,0.173,5.153,3.607,7.043,0.514
	c-1.373-3.262-0.343-7.043,1.547-9.788c1.202-1.202,3.263-1.202,4.637-0.687c1.89,0.687,3.092,2.747,5.667,1.89
	c0.346-0.86,0.688-2.579-0.341-3.438c-2.235-3.777-8.761-3.95-8.419-8.932l2.235-2.235c-2.235-0.858-3.952,2.921-6.186,1.033
	c-2.06-0.173-2.919,1.375-4.123,2.748l-0.858-1.201c-0.687,0.516-1.03,1.375-1.888,1.544l-0.344-1.889
	c-1.891-1.375-3.607,1.031-4.295,2.403c-0.688-0.343,0.344-2.229-1.201-1.716l-0.86,1.203c-1.547-0.688,0.171-1.544-0.345-2.576
	c-0.858-0.688-1.887,0-2.574,0.687c0.687-0.857,0.342-3.605,2.232-4.638c3.262-0.688,6.183,1.376,9.274-0.858
	c2.75-0.173,5.325-1.89,6.527-4.467c-0.171-0.514,0.172-0.858,0.516-1.203c1.031,1.203,2.405-0.344,3.78-0.344
	c0.17,1.718-1.891,3.951-0.688,5.67c1.546-0.172,3.779-0.858,5.326-1.889c0.514,0.686,0.17,1.889,0.344,2.745l-1.548,1.546
	c0.859,1.033,1.89-0.514,2.404-0.856c0.689,0.515,0.17,1.718,1.204,2.059l3.778-4.808c1.546,6.528,8.418,10.134,11.166,15.975
	c1.201-0.171,2.92-0.516,3.09-2.061C-297.049-8.921-306.839-20.6-295.502-26.098L-295.502-26.098z"/>
<path d="M-237.689,109.636c-0.036-1.645,1.437-2.794,2.998-2.142c0.067-0.494-0.619-0.237-0.642-0.642
	c0.238-1.266,3.415-0.722,3.212-1.713c-1.038,1.11-2.682-0.639-3.641,0.642c-0.166-1.809,0.962-2.32,2.784-2.141
	c-0.38-0.707,0.838-1.086,1.499-1.07c2.486,0.055,3.14,3.846,6.851,3.211c4.234-0.721,9.206-6.778,11.561-9.421
	c0.631,0.693,2.345,0.481,2.787-0.215c-0.487-0.227-0.082-1.347-0.214-1.927c0.252-0.319,0.537-0.604,0.855-0.856
	c5.119,0.779,11.242,1.295,12.849-2.998c-1.646,6.012,1.617,9.075,3.425,12.848c-0.642-6.6-0.948-12.656,4.069-14.988
	c4.699-2.185,14.309,3.561,13.704-4.925c-0.045-0.604-1.042-1.474-0.216-1.927c2.973,3.349,1.627,12.196-4.927,11.134
	c0.982,1.775,3.997,3.565,6.426,1.927c-1.514,3.901-6.726,1.283-8.351,0c0.016,2.156-0.559,3.727-1.927,4.497
	c0.675-2.838-0.396-5.14-2.784-5.14c-4.624,0.003-4.642,9.842-3.212,14.133c0.394,1.174,1.743,3.05,2.998,4.711
	c2.176,2.882,3.08,5.216,5.782,6.424c0.013,0.702,0.607,0.817,0.427,1.713c-0.177,0.7-0.748-1.058-1.069-0.214
	c0.526,1.544,2.18,1.958,3.212,2.997c0.225,0.797-0.722,0.42-0.857,0.856c1.586,0.201,2.232,0.679,2.143,2.142
	c-0.811-0.617-2.429-0.426-3.213-1.071c0.082,0.705,1.139,0.433,1.07,1.285c-0.817,2.192,0.937,3.426,1.071,5.354
	c-0.311,0.117-1.107-0.251-1.071,0.213c1.045,0.187,1.536,1.521,2.783,0.858c0.009,2.011-3.463,1.412-3.854,0.213
	c0.295,1.199-2.59,1.841-2.354,2.998c-1.229-1.066-2.592-0.867-3.855,0c-0.993-0.223-0.993-1.435-1.498-2.142
	c-0.172,0.803-0.678,1.514-0.217,2.354c-0.736,0.026-1.009-0.416-1.497-0.642c0.059-0.433-0.119-2.208,0.644-2.569
	c-0.522,0.12-0.458,0.828-1.285,0.643c-0.283-0.643-0.219-1.639-0.215-2.569c2.009-1.224,3.945-6.036,2.354-8.138
	c0.181-3.31-2.324-5.091-5.351-5.78c-4.281-0.975-9.13-1.688-11.136-4.497c0.942,1.557,2.557,2.439,3.855,3.641
	c0.61,2.792-1.658,3.467-1.071,5.567c-0.252,0.034-0.606-0.037-0.644,0.213c0.929,0.476,1.141,2.187,0,2.57
	c0.025-1.023-0.58-1.418-1.286-1.714c0.11,1.108-1.414,0.583-1.924,1.071c0.413,1.103,0.65,2.645-0.212,3.427
	c-1.713,0.354-1.55-1.163-3.214-0.857c-0.779,0.219-0.754,1.246-1.071,1.928c-0.627-0.443-1.576-0.565-2.141-1.07
	c-0.767,0.648-0.668,1.834-1.071,2.354c-1.039-0.287-1.473-2.086-0.642-2.997c-0.346,0.366-1.104,0.196-1.284-0.215
	c1.042-0.225,0.093-2.435-0.644-1.499c1.772,0.287,0.03,1.653,0.644,2.784c-1.873,0.169-0.952-1.966-0.857-2.784
	c-0.007,0.063-0.589,0.337-0.428-0.214c0.984-3.357,5.738-1.799,6.423-5.995c0.703-4.3,2.514-7.788,0.426-11.135
	c0.619-0.31,1.272-0.584,1.716-1.071c-2.567,0.572-4.683,1.599-5.995,3.427c0.284,0.383,1.323,0.578,0.853,1.07
	c-1.557,0.603-3.427-1.203-5.135-0.428c0.251,0.677,1.192,0.664,1.495,1.285c-2.983-1.075-3.682,1.657-5.351,0.856
	c-0.42,1.978-0.255,2.058-2.569,2.141c-0.284-1.142,1.143-0.571,0.854-1.712c-1.193,0.29-0.304-0.818-1.496-0.857
	c-1.555-0.049-2.57,2.111-4.712,1.928c-0.65-0.377,0.584-0.664,0-0.856c-0.457,0.611-1.562,0.577-1.283,1.927
	c-1.865-0.641,0.05-2.694,0-3.197c-0.031,0.19-1.953-1.993-2.569-1.728C-234.638,109.52-236.337,108.835-237.689,109.636
	L-237.689,109.636z M-237.689,87.581c0.931-0.473,1.274-0.715,2.356-0.214c-1.071,1.803,2.644,2.283,3.426,3.64
	c0,0.643,0,1.285,0,1.928c0.855,0.213,1.912,0.229,2.139,1.07c-0.011,0.702-0.604,0.818-0.426,1.713
	c1.308,0.167,1.871-0.414,2.569-0.856c1.526,0.686,1.552,2.874,3.426,3.212c0.591-0.467-0.814-0.745-0.645-1.499
	c2.396,0.918,2.465,3.569,5.999,3.212c-0.313-0.474-1.146-0.424-1.287-1.071c1.104,0.254,1.679,1.034,2.571,1.5
	c1.232-0.531,1.993-1.759,2.569-2.355c-1.82-0.671-2.584-2.829-1.928-5.354c-1.534,0.156-2.404-1.271-3.642-1.928
	c-2.05-1.087-5.231-1.412-6.422-3.426c-1.493-2.521,0.65-7.521-2.786-8.778c0.458,1.147-3.444-1.641-3.64,1.07
	c1.188-0.291,1.563,0.103,2.356,0.643c-0.224,0.118-0.968,0.273-1.497,0.642c0.22,0.495,0.735,0.689,0.642,1.499
	c-0.045-2.01-3.781-2.316-4.497-0.642c1.267,0.379,1.847,0.794,3.641,1.284c-1.235-0.115-2.729,1.63-1.715,2.355
	c-0.813,0.024-2.63-0.013-3.211,0.856C-237.689,86.581-237.689,87.082-237.689,87.581L-237.689,87.581L-237.689,87.581z
	 M-229.979,93.79c-0.174-0.184-0.584-0.126-0.644-0.428c-0.906-0.043-1.46,1.383-2.354,0.643
	C-233.829,95.625-229.531,95.868-229.979,93.79L-229.979,93.79L-229.979,93.79z M-215.635,91.863
	c-1.528,1.435-0.938,5.934,1.496,5.139c-1.21-0.561-0.893-2.552,0.432-2.783c-0.322,0.73,0.891,1.598,2.355,1.713
	c-1.612-4.67,4.529-3.282,6.85-4.71c0.364,0.582-1.294,0.98-1.925,1.284c3.48,1.28,9.035,0.565,9.422-3.212
	c0.524,1.4,1.868,1.985,3.854,1.928c-2.804-5.958,5.4-11.075,1.713-17.986c-0.936,1.168-2.688,3.198-4.711,1.927
	c3.258,0.507,4.653-2.602,4.926-5.781c-0.813-0.919-3.194-1.107-4.711-0.643c0.615-1.185,2.974-0.461,4.282-0.429
	c-3.514-2.422-7.252-4.038-11.99-3.426c-2.042,0.264-3.188,1.771-4.926,2.355c-2.194,0.738-4.548-0.063-5.994,1.285
	c-0.486,0.252,0.424,2.282,0.424,1.941c0.049,1.063-0.758,2.25-0.211,3.411c0.491,1.043,1.791,1.197,3.212,1.928
	c-0.056-0.658-0.464-0.964-0.642-1.499c0.352-0.544,0.713,0.693,1.499,0.428c0.028-0.743-0.185-1.243-1.071-1.07
	c2.06-0.649,4.314,0.6,3.641,2.355c-0.641,1.664-3.651,0.203-4.926,1.499c-0.108,2.846,2.643,4.286,4.711,2.569
	c0.122,0.982-2.588,0.977-2.568,2.569c0.615,0.521,1.247-0.691,1.926,0.214c-1.958,0.208-5.104,4.178-6.209,0.643
	c-1.204,1.073,0.289,2.74,1.07,3.212c-0.239,0.783-1.625,0.749-2.354,0.428c0.143,0.714,0.55,1.163,1.499,1.071
	c-1.919,1.927-3.211-0.034-4.282-1.071C-218.975,89.247-218.287,91.885-215.635,91.863L-215.635,91.863L-215.635,91.863z
	 M-210.494,129.55c1.068,0.001,1.373,0.766,2.568,0.642c-0.01-1.132-0.968-1.314-0.643-2.783
	C-210.202,126.628-211.197,127.995-210.494,129.55L-210.494,129.55L-210.494,129.55z M-183.515,139.185
	c-0.485-0.874-1.435-1.276-1.071-2.998C-187.845,134.438-186.346,140.907-183.515,139.185L-183.515,139.185L-183.515,139.185z
	 M-232.335,112.634c0,0.004,0.001,0.008,0,0.015C-232.334,112.646-232.334,112.64-232.335,112.634L-232.335,112.634z
	 M-208.568,127.408c-1.634-0.78-2.629,0.587-1.926,2.142c1.068,0.001,1.373,0.766,2.568,0.642
	C-207.936,129.06-208.894,128.877-208.568,127.408L-208.568,127.408z M-206.641,68.096c0.859-0.147,1.222,0.206,1.924,0.214
	C-204.827,69.462-206.897,69.836-206.641,68.096L-206.641,68.096z M-184.586,136.187c-3.259-1.749-1.76,4.721,1.071,2.998
	C-184,138.311-184.949,137.908-184.586,136.187z"/>
<g>
	<path fill-rule="evenodd" clip-rule="evenodd" d="M-435.581,81.664c-0.819-0.512-2.126,2.149-4.721,1.287
		c-0.698-1.018-0.951-2.482-1.287-3.863c3.307,2.265,8.032,0.167,6.868-4.721c-0.727,0.289-6.979-1.265-6.009,2.146
		c-2.878-1.542-0.853-5.071-0.858-7.296c6.963,2.111,8.924-2.987,15.451-2.575c0.389-0.118,1.442-1.6,0.43-1.718
		c1.743-1.082,3.605,3.228,1.716,4.722c2.973,1.462,5.987,2.884,5.58,7.726c-1.115-1.603-2.543-2.894-4.721-3.434
		c0.439,1.855,4.942,3.352,4.721,7.298c-1.48-0.953-2.316-2.55-4.721-2.576c2.882,1.097,4.687,5.972,2.576,9.442
		c-0.569-2.579-0.759-5.535-3.435-6.009c1.453,2.017,2.926,7.042-0.429,8.155c0.829-1.362-0.456-3.659-1.288-4.722
		c-0.628,3.092-0.627,6.813-4.722,6.438c1.106-0.897,1.573-2.434,1.288-4.722c-1.249,2.186-2.821,4.047-6.009,4.292
		c0.501-1.645,1.987-2.306,2.147-4.292c-0.966-0.041-5.754,4.991-7.726,1.288c2.455,0.023,3.514-1.351,4.291-3.005
		c-4.047,1.842-12.71,0.764-11.588-6.438C-446.26,82.433-438.89,86.293-435.581,81.664z"/>
	<path fill-rule="evenodd" clip-rule="evenodd" d="M-445.883,70.074c-2.016,5.488,5.266,9.004,10.302,6.01
		C-437.284,81.739-453.605,76.564-445.883,70.074z"/>
	<path fill-rule="evenodd" clip-rule="evenodd" d="M-427.426,132.312c-1.609-0.124-4.291-1.408-4.722-1.288
		c-0.835-3.228,5.617-2.908,7.298-0.857c3.508-0.517,1.819-4.208,3.005-6.438c-1.865-2.604-4.803,0.75-8.155,0.429
		c-0.246-2.535,2.086-2.491,3.433-3.434c-1.321-1.54-1.453-4.27-1.287-7.297c-0.078-1.21-2.041-0.535-1.718-2.146
		c-2.066,0.796-3.509,2.214-6.438,2.146c0.14,1.004,0.517,1.773,0.857,2.575c2.435,0.389,2.897-1.857,4.722-0.857
		c-0.057,2.384-2.816,4.649-4.722,2.574c-0.45,4.652-0.458,7.163-2.575,9.872c0.624-0.234,2.219,0.501,2.146-0.429
		c1.33,3.197-5.401,2.033-5.15,5.579c-0.755-0.39-0.786-1.504-1.288-2.146c-0.789,0.643-1.07,1.793-2.146,2.146
		c-1.476-0.099-1.871-1.276-2.146-2.574c-0.487,1.864-2.083,4.437-1.287,5.579c-2.762,0.734-3.368-5.831-0.858-7.297
		c-2.205-1.31-3.107,1.914-4.292,3.005c-1.424-0.15-0.674-2.474-0.859-3.863c1.201-0.803,1.944-2.062,3.864-2.146
		c-0.708-1.868-2.896-2.254-4.721-3.004c2.702-3.435,7.615,0.186,8.154,3.004c2.151-1.21,5.863-2.916,3.863-6.868
		c-3.275,0.271-5.49-0.519-5.58-3.433c1.664,1.223,3.748,0.705,5.58,0c-3.253-11.123,8.05-7.688,12.448-11.161
		c0.05-1.236-0.234-2.809,0.428-3.433c-5.01,1.521-9.282-3.707-11.159,0c0.108,1.464,0.918,2.229,2.575,2.146
		c-0.613,1.39-2.082,1.924-4.293,1.716c-0.24-1.048-1.66-0.914-1.288-2.575c-4.179,1.704,3.031,6.864-4.292,9.014
		c1.9-1.704,1.538-5.663-2.576-4.722c1.667,3.502-1.66,4.852-0.857,7.297c-1.517-1.526-3.03-4.988-1.288-7.297
		c-1.89-3.292-5.117,1.481-3.863,3.863c-3.876-0.709-2.95-7.263,0.859-7.296c-0.394-1.1-4.307-1.569-4.292-0.431
		c-0.093-5.608,5.021-0.809,7.726-0.857c4.836-0.088,4.211-6.713,9.872-7.727c-0.603-0.895-3.921,1.634-3.863-0.858
		c-1.579,0.71-2.575,2.003-5.15,1.717c0.89-1.465,3.197-2.596,1.717-5.15c-1.465,0.702-3.698,0.503-4.721-0.429
		c1.063-0.652,2.67-0.764,3.004-2.146c-0.281-1.149-1.229-1.632-1.717-2.575c-1.028,0.83-3.466,0.253-3.862,1.717
		c-1.326-2.48,1.097-4.903,4.292-4.292c-1.441-1.135-2.587-2.564-4.292-3.434c1.182-1.72,4.49-0.521,5.149,0.857
		c-0.047-0.261-0.75-3.523-1.717-4.292c2.456-0.445,4.847,2.874,4.292,6.868c1.665,4.487,6.212,6.092,9.443,9.014
		c2.166,0.306,3.133-0.587,4.721-0.859c-0.564,0.866-1.408,1.453-2.575,1.717c2.063,1.049,6.139,0.426,6.867-1.287
		c0.94,0.422-0.385,2.149-1.289,2.146c2.441,1,6.167-0.407,6.44-3.004c0.917,0.269,0.401,2.643,0,3.004
		c1.533-0.184,2.356-1.077,3.004-2.146c-0.817,3.422,2.065,4.44,1.717,9.443c4.453,1.413,5.649,6.081,8.583,9.014
		c7.869-5.498-3.947-11.796-2.146-20.604c1.292-3.719,9.041-5.625,11.16-1.287c0.57,6.289-2.715,10.572,0,15.451
		c-3.024-1.268-3.741-4.843-3.435-9.442c-0.814-0.76-2.748-0.399-3.433-1.288c-0.142-1.857,2.378-1.057,2.146-3.004
		c0.12-0.693-0.406-0.738-0.43-1.288c-9.767,1.614,1.911,11.385,1.288,17.599c1.817-1.424,7.861-0.479,5.58,4.292
		c0.243,1.045,0.367,2.208,1.716,2.146c-2.55,1.678-3.034-2.394-3.863-3.863c-0.61,0.037-1.216,0.07-1.288-0.43
		c-2.923,2.393-8.473,6.261-11.589,1.288c-2.573,1.291-2.395,5.33-3.434,8.155c1.934-0.876,3.689-3.912,6.438-2.576
		c-1.479,0.811-0.931,3.647-3.862,3.005c0.74,1.55,2.709,1.869,2.576,4.293c1.137-0.007,2.526,0.237,2.574-0.858
		c1.789,1.67,0.669,6.26-0.429,7.726c-0.699-0.875-0.902-2.246-1.717-3.005c-3.237,1.219-1.375,4.901-4.292,6.438
		c0.392,0.753,0.797,1.491,2.145,1.287c-0.135,1.303-2.425,1.742-3.434,0.858c-0.638,0.364-0.62,1.382-0.858,2.146
		c-1.103-0.042-0.615-1.676-1.717-1.716c-0.195,1.008,0.679,4.547,0,5.15c-2.425,1.589-3.237-3.556-2.146-5.581
		c-2.208,0.367-1.619,3.532-3.434,4.293c-0.079,0.365,0.167,0.404,0.43,0.429C-430.362,139.214-429.958,132.489-427.426,132.312z"/>
</g>
<g>
	<path fill-rule="evenodd" clip-rule="evenodd" d="M-334.255,101.111L-334.255,101.111l-0.267-0.214l-0.268-0.16l-0.429-0.242
		l-0.403-0.241l-0.375-0.213l-0.348-0.269l-0.187-0.134l-0.135-0.16l-0.16-0.161l-0.108-0.188l-0.134-0.214l-0.106-0.214
		l-0.081-0.242l-0.08-0.268l0.375-0.563l3.082-0.429l1.019,0.026l0.24,0.269l0.242,0.241l0.027-0.026l0.053-0.027l-0.268,0.16
		l-0.16,0.054h-0.054l-0.188,0.081l-0.08,0.054l-0.081,0.08l-0.08,0.08l-0.028,0.134l-0.24,0.054l-0.321,0.054l-0.162,0.026
		l-0.16,0.054l-0.107,0.081l-0.081,0.107l-0.08,0.106l-0.053,0.107l-0.027,0.134l-0.027,0.134l0.027,0.456l0.053,0.214l0.027,0.054
		l0.027,0.053h0.08l0.162-0.08l0.053-0.08l0.133-0.107l0.081-0.026h0.134l0.134,0.026l0.135,0.054l-0.054,0.027l-0.053,0.026
		l-0.188,0.08l-0.134,0.135l-0.107,0.107l-0.081,0.16l-0.08,0.161l-0.054,0.188l-0.027,0.188l-0.028,0.24V101.111L-334.255,101.111
		L-334.255,101.111z M-302.745,87.931l-0.135-0.135l-0.16-0.134l-0.162-0.135l-0.187-0.106v-0.08l0.455-0.054l0.375-0.107
		l0.321-0.107l0.242-0.134l0.213-0.16l0.162-0.134l0.133-0.135l0.108-0.107l0.026-0.026v-0.027l0.107-0.161l0.106-0.159l0.08-0.188
		l0.055-0.215l0.054-0.267l0.026-0.269l-0.026-0.269v-0.24l-0.054-0.269l-0.082-0.214l-0.079-0.216l-0.08-0.186l-0.215-0.322
		l-0.08,0.402l-0.053,0.188l-0.054,0.187l-0.055,0.134l-0.081,0.081l-0.08,0.053l-0.053,0.027l-0.08,0.026h-0.081l-0.135-0.054
		l-0.159-0.107l0.159-0.481l0.135-0.509l0.107-0.482l0.081-0.51l0.052-0.483l0.027-0.508l-0.027-0.481v-0.483l-0.079-0.804
		l-0.135-0.803l-0.188-0.804l-0.188-0.778l0.188,0.027h0.188l0.214-0.027l0.189-0.026l0.187-0.054l0.161-0.055l0.106-0.079
		l0.054-0.055l0.026-0.105v-0.107l-0.053-0.106l-0.106-0.082l-0.216-0.134l-0.187-0.161l-0.188-0.213l-0.188-0.242l-0.188-0.268
		l-0.16-0.294l-0.161-0.296l-0.16-0.32l-0.294-0.67l-0.27-0.643l-0.241-0.643l-0.187-0.591l-0.054-0.105l-0.215-0.724l-0.269-0.616
		l-0.133-0.269l-0.135-0.269l-0.134-0.242l-0.161-0.213l-0.16-0.188l-0.161-0.188l-0.188-0.16l-0.188-0.161l-0.215-0.16
		l-0.214-0.135l-0.24-0.106l-0.27-0.134l0.188-0.134l0.161-0.161l0.054-0.081l0.053-0.08l0.027-0.108l0.026-0.08v-0.24l-0.24,0.107
		l-0.27,0.08l-0.294,0.053h-0.268l-0.241-0.053l-0.27-0.054l-0.239-0.106l-0.269-0.135l-0.268-0.106l-0.162-0.107l-0.187-0.108
		l-0.215-0.133l-0.295-0.214l-0.321-0.161l-0.16-0.054l-0.161-0.054h-0.188l-0.188,0.026l0.026-0.107v-0.24l0.028-0.241v-0.242
		l-0.028-0.213l-0.054-0.214l-0.08-0.189l-0.053-0.08l-0.08-0.079l-0.082-0.054l-0.106-0.027l-0.133-0.026h-0.136l-0.213,0.08
		l-0.242,0.16l-0.241,0.188l-0.213,0.241l-0.189,0.267l-0.188,0.242l-0.16,0.268l-0.08,0.214l-0.026,0.054v0.027l-0.055-0.027
		l-0.054-0.026l-0.134-0.054l-0.133-0.055l-0.135-0.026h-0.161h-0.16l-0.161,0.054l-0.16,0.054l-0.161,0.107l-0.215,0.161
		l-0.16,0.135l-0.134,0.159l-0.135,0.134l-0.16,0.162l-0.16,0.16l-0.188,0.161l-0.268,0.16l-0.322-0.054l-0.294-0.053l-0.402-0.054
		l-0.401-0.027h-0.214h-0.188l-0.188,0.054l-0.16,0.054l-0.107,0.053l-0.107,0.054l-0.08,0.081l-0.107,0.081l-0.08,0.106
		l-0.081,0.107l-0.053,0.106l-0.054,0.134l-0.054,0.135v0.161v0.134v0.16h-0.188l-0.188,0.027l-0.215,0.054l-0.187,0.052
		l-0.375,0.216l-0.348,0.215l-0.188,0.134l-0.161,0.106l-0.161,0.055l-0.107,0.027h-0.241l-0.215,0.026l-0.188,0.053l-0.161,0.054
		l-0.108,0.107l-0.106,0.106l-0.08,0.108l-0.081,0.134l-0.027,0.107l-0.027,0.106l-0.027,0.106l0.027,0.107l0.027,0.188l0.081,0.162
		l0.107,0.133l0.133,0.134l-0.027,0.027v0.026l-0.026,0.107l-0.027,0.107l-0.027,0.241v0.268l0.027,0.242l0.027,0.187h0.026
		l0.027,0.106l0.054,0.108l0.054,0.134l0.08,0.106l0.188,0.269l0.242,0.241l0.268,0.241l0.268,0.187l0.134,0.027h0.107l-0.054-0.16
		l-0.053-0.135v-0.107v-0.106l0.268,0.214l0.268,0.188l0.027,0.026l-0.188,0.053l-0.134,0.054l-0.375,0.135l-0.295,0.08
		l-0.723,0.134l-0.644,0.054h-0.562l-0.482-0.026l-0.429-0.081l-0.348-0.08l-0.294-0.135l-0.268-0.159l-0.161-0.161l-0.161-0.162
		l-0.135-0.16l-0.106-0.16l-0.081-0.187l-0.053-0.188l-0.054-0.188v-0.187l-0.027-0.242l0.027-0.214l0.054-0.24l0.053-0.188
		l0.081-0.188l0.08-0.188l0.107-0.133l0.107-0.107l0.081-0.081l0.08-0.027l0.081-0.026h0.08l0.188,0.026l-0.027-0.188l-0.027-0.08
		l-0.08-0.08l-0.161-0.054l-0.161-0.027h-0.214l-0.215,0.055l-0.268,0.053l-0.241,0.134l-0.214,0.134l-0.188,0.189l-0.161,0.239
		l-0.161,0.295l-0.054,0.189l-0.053,0.159l-0.027,0.214l-0.027,0.216l-0.027,0.24v0.24l0.027,0.27l0.027,0.294l0.054,0.376
		l0.107,0.32l0.134,0.295l0.161,0.268l0.134,0.188l0.161,0.188l0.188,0.161l0.187,0.133l0.215,0.134l0.213,0.107l0.215,0.08
		l0.241,0.081l0.241,0.054l0.241,0.054l0.241,0.026l0.268,0.027h0.509l0.536-0.054l0.429-0.054l0.428-0.108l0.402-0.106l0.402-0.134
		l0.375-0.134l0.375-0.16l0.322-0.189l0.322-0.187v0.134l0.027,0.135l-0.108,0.027l-0.08,0.026l-0.054,0.026l-0.054,0.054
		l-0.053,0.027l-0.081,0.133l-0.054,0.134l-0.053,0.134v0.188v0.027l-0.054,0.026l-0.134,0.08l-0.107,0.107l-0.054,0.133
		l-0.053,0.134l-0.027,0.136l0.027,0.134l0.027,0.134l0.026,0.106l0.054,0.054l0.027,0.053l-0.081,0.107l-0.053,0.081l-0.027,0.107
		l-0.026,0.107l0.026,0.133l0.027,0.107l0.053,0.106l0.054,0.108l0.081,0.107l0.107,0.08l0.108,0.107l0.133,0.079l0.134,0.081
		l0.161,0.08l0.188,0.081l0.187,0.054l0.215,0.054l0.214,0.026l0.268,0.027l-0.107-0.242l-0.053-0.134l-0.081-0.133l-0.08-0.161
		l-0.081-0.188l-0.053-0.161l-0.027-0.187l0.027,0.054l0.134,0.16l0.134,0.161l0.081,0.054l0.08,0.054l0.081,0.026l0.08,0.027h0.134
		l0.08-0.054l0.054-0.054l0.026-0.108v-0.08v-0.08l0.135,0.054l0.16,0.026h0.16h0.161h0.375l0.401-0.026l0.108-0.027l0.105,0.027
		h0.082l0.053,0.054l0.054,0.026l0.027,0.054v0.081v0.054l-0.027,0.188l-0.027,0.16l-0.053,0.134l-0.054,0.135l-0.134,0.214
		l-0.188,0.161l-0.188,0.134l-0.188,0.079l-0.214,0.082l-0.161,0.026l-0.615,0.107l-0.59,0.054l-0.536,0.026l-0.536,0.027h-0.375
		l-0.321,0.026l-0.321,0.026l-0.268,0.027h-0.027l-0.269,0.08l-0.268,0.053l-0.268,0.081l-0.268,0.081l-0.241,0.053l-0.241,0.107
		l-0.242,0.081l-0.241,0.08l-0.536,0.24l-0.456,0.269l-0.402,0.295l-0.349,0.295l-0.16,0.16l-0.107,0.161l-0.108,0.159l-0.107,0.162
		l-0.054,0.16l-0.053,0.162l-0.027,0.16l-0.027,0.188l-0.268,0.161l-0.295,0.16l-0.321,0.188l-0.295,0.188l-0.375-0.295
		l-0.375-0.296l-0.509-0.454l-0.483-0.457l-0.241-0.24l-0.215-0.241l-0.213-0.242l-0.215-0.267l-0.16-0.269l-0.162-0.268
		l-0.133-0.268l-0.081-0.296l-0.055-0.294l-0.026-0.321V78.82l0.081-0.349l0.027-0.08l-0.082-0.081h-0.026l-0.214-0.16l-0.267-0.214
		l-0.296-0.215l-0.268-0.187l-0.697-0.51l-0.643-0.481l-0.589-0.429l-0.429-0.323l-0.054-0.08l-0.081-0.106l-0.161-0.24
		l-0.161-0.216l-0.08-0.08l-0.107-0.081l-0.107-0.053l-0.133-0.054l-0.081-0.027h-0.081h-0.106l-0.082-0.026l-0.24,0.026
		l-0.269,0.027l-0.214,0.026l-0.214,0.054l-0.054-0.054l-0.081-0.054l-0.107-0.133l-0.107-0.08l-0.135-0.081l-0.16-0.026h-0.026
		l-0.135,0.026l-0.106,0.054l-0.107,0.054l-0.108,0.054l-0.213,0.187l-0.162,0.161l-0.054,0.08l-0.052-0.054l-0.081-0.026
		l-0.241-0.188l-0.296-0.16l-0.132-0.054l-0.135-0.054h-0.133l-0.135,0.027l-0.107,0.053l-0.08,0.054l-0.188,0.106l-0.161,0.134
		l-0.134,0.134l-0.107,0.162l-0.081,0.161l-0.052,0.133l-0.027,0.161v0.135l-0.135,0.026l-0.107,0.027h-0.053l-0.026,0.026
		l-0.082,0.08l-0.08,0.081l-0.081,0.08l-0.054,0.079l-0.134,0.241l-0.08,0.242l-0.081,0.268l-0.027,0.295l-0.053,0.107l-0.052,0.107
		l-0.055,0.159l-0.027,0.134l-0.027,0.188l-0.026,0.188v0.213l0.026,0.188l0.027,0.188l0.082,0.188l0.079,0.187l0.135,0.188
		l0.213,0.295l0.054-0.349l0.053-0.162l0.027-0.106l0.053-0.106l0.055-0.054l0.105-0.054l0.108-0.053l0.053,0.294l0.082,0.269
		l0.08,0.134l0.08,0.106l0.081,0.107l0.108,0.08h0.027l0.375,0.295l-0.135-0.455l-0.026-0.134l0.054-0.134l0.028-0.08l0.053-0.109
		l0.053-0.053l0.08-0.026l0.107-0.027h0.135l0.079,0.106l0.107,0.109l0.135,0.134l0.133,0.106l0.348,0.213l-0.105-0.373v-0.027
		l0.025-0.026l0.027-0.082l0.053-0.079l0.108-0.054l0.134-0.055h0.025h0.054l-0.026,0.43v0.401l0.026,0.188l0.026,0.188l0.054,0.16
		l0.082,0.16l0.081,0.162l0.106,0.134l0.135,0.106l0.134,0.107l0.161,0.106l0.188,0.082l0.214,0.08l0.24,0.054v0.026l0.028,0.134
		l0.081,0.161l0.107,0.105l0.133,0.108l0.188,0.081l0.215,0.053l0.134,0.027h0.133l0.135-0.027l0.16-0.026v0.134l0.027,0.16
		l0.028,0.135l0.053,0.135l0.054,0.106l0.08,0.134l0.106,0.134l0.108,0.134l-0.241,0.106l-0.215,0.108l-0.16,0.161l-0.135,0.16
		l-0.106,0.188l-0.08,0.188l-0.054,0.215l-0.027,0.214l-0.027,0.215v0.241l0.027,0.24l0.027,0.242l0.08,0.508l0.107,0.482
		l0.053,0.403l0.054,0.374v0.322v0.32l-0.026,0.08l-0.028,0.055l-0.053,0.054l-0.053,0.054l-0.107,0.027h-0.135h-0.133l-0.107,0.026
		h-0.054l-0.028,0.026l-0.027,0.054l-0.026,0.053v0.107l0.053,0.08l0.108,0.107l0.134,0.08l0.134,0.055l0.188,0.026l0.16,0.027
		h0.188l0.214-0.054l0.213-0.108l0.108-0.053l0.134-0.107l0.108-0.081l0.079-0.133l0.054,0.24l0.027,0.323l-0.643,0.16l-0.616,0.187
		l-0.509,0.16l-0.348,0.136l-0.805,0.374l-0.697,0.376l-0.322,0.187l-0.294,0.188l-0.267,0.188l-0.268,0.188l-0.269,0.214
		l-0.241,0.241l-0.24,0.241l-0.242,0.268l-0.241,0.296l-0.242,0.293l-0.214,0.35l-0.241,0.374l-0.402,0.617l-0.401,0.696
		l-0.402,0.696l-0.349,0.644l-0.188,0.321l-0.214,0.321l-0.188,0.322l-0.187,0.348l-0.161,0.376l-0.134,0.374l-0.161,0.376
		l-0.161,0.348l-0.026,0.188l-0.027,0.213l-0.054,0.188l-0.054,0.241l-0.134,0.429l-0.081,0.481l-0.053,0.403l-0.107,0.454
		l-0.081,0.455l-0.053,0.483v1.446l0.027,0.188l0.054,0.24l0.107,0.296l0.081,0.294l0.241,0.59l0.161,0.402l0.214,0.401l0.269,0.376
		l0.161,0.187l0.16,0.162l0.188,0.16l0.188,0.135l0.241,0.16l0.241,0.133l0.242,0.108l0.215,0.08l0.481,0.161l0.482,0.134
		l0.509,0.081l0.509,0.104l0.563,0.109l0.563,0.16l0.616,0.135l0.669,0.08l0.697,0.08l0.697,0.079l0.053,0.054l0.054,0.026
		l0.106,0.056l0.082,0.054l0.134,0.053h0.133l0.135,0.027l0.134-0.027l0.161-0.053l0.161-0.054l0.401,0.079l0.377,0.081l0.321,0.107
		l0.267,0.107l0.188,0.079l0.134,0.107l0.268,0.269l0.375,0.455l0.214,0.321l0.322,0.51l0.16,0.241l0.162,0.214l0.133,0.162
		l0.107,0.052l0.108-0.026l0.106-0.053l0.054-0.108l0.027-0.106v-0.429l-0.027-0.482l-0.08-0.563l-0.134-0.563l-0.134-0.59
		l-0.16-0.589l-0.162-0.508l-0.16-0.482l-0.162-0.35l-0.106-0.24l-0.133-0.24l0.026-0.135l0.027-0.162l0.106-0.026l0.08-0.054
		l0.082-0.105l0.054-0.135l0.08-0.269l0.053-0.321l0.027-0.349l0.026-0.4l0.027-0.35l0.027-0.321l0.055-0.16l0.08-0.135l0.106-0.106
		l0.162-0.108l0.16,0.108l0.162,0.133l0.133,0.162l0.134,0.161l0.108,0.159l0.081,0.188l0.079,0.162l0.027,0.188l0.027,0.187v0.188
		l-0.054,0.16l-0.053,0.161l-0.106,0.16l-0.135,0.134l-0.16,0.107l-0.216,0.107l-0.213,0.054l0.134,0.215l0.16,0.187l0.135,0.081
		l0.186,0.08l0.215,0.055l0.242,0.053h0.24l0.268-0.027l0.242-0.053l0.268-0.054l0.241-0.108l0.214-0.107l0.215-0.159l0.187-0.188
		l0.135-0.188l0.134-0.216l0.106-0.24l0.054-0.242l0.054-0.24l0.027-0.24v-0.27v-0.267l0.563,0.455l0.616,0.455l0.669,0.429
		l0.669,0.402l0.697,0.375l0.696,0.375l0.67,0.321l0.643,0.349l0.777,0.375l0.776,0.402l0.696,0.373l0.617,0.404h-0.375h-0.349
		h-0.321l-0.295,0.026l-0.295,0.026l-0.294,0.027l-0.75,0.107l-0.697,0.132l-0.67,0.162l-0.616,0.188l-0.537,0.215l-0.481,0.24
		l-0.215,0.135l-0.188,0.16l-0.188,0.134l-0.134,0.136v0.026l-0.294,0.321l-0.269,0.349l-0.241,0.348l-0.241,0.376l-0.241,0.454
		l-0.241,0.509l-0.188,0.482l-0.161,0.51l-0.108,0.535l-0.053,0.536v0.535l0.053,0.564l0.027,0.347l0.081,0.35l0.08,0.32l0.081,0.35
		l0.241,0.643l0.241,0.643l0.295,0.616l0.322,0.616l0.348,0.589l0.349,0.616l-0.081,0.429l-0.107,0.402l-0.161,0.375l-0.188,0.349
		l-0.214,0.349l-0.268,0.375l-0.295,0.348l-0.321,0.402l-0.269,0.295l-0.294,0.348l-0.429,0.537l-0.697,0.749l-0.644,0.75
		l-0.428,0.43l-0.321,0.026l-0.348,0.055l-0.295,0.08l-0.294,0.132l-0.348,0.188l-0.294,0.215l-0.295,0.214l-0.267,0.268
		l-0.43-0.161l-0.402-0.106l-0.348-0.053l-0.349-0.027l-0.321,0.027l-0.294,0.079l-0.322,0.135l-0.322,0.187l-0.16-0.08l-0.162-0.08
		l-0.16-0.054h-0.189h-0.079l-0.107,0.027l-0.108,0.053l-0.107,0.081l-0.241,0.188l-0.293,0.294l-0.108,0.188l-0.106,0.243
		l-0.107,0.239l-0.109,0.269l-0.16,0.135l-0.135,0.16l-0.107,0.187l-0.08,0.216l-0.027,0.134v0.16v0.188l0.027,0.188l0.053,0.188
		l0.08,0.16l0.027,0.08l0.054,0.054l0.081,0.053l0.081,0.027l0.105-0.32l0.109-0.188l0.375,0.027l0.348,0.027v0.106v0.081v0.32
		l0.027,0.322l0.081,0.294l0.079,0.269l0.081,0.134l0.081,0.081l0.107,0.079l0.134,0.08l0.107-0.32l0.133-0.296l0.188-0.24
		l0.241-0.268l0.215-0.026l0.188-0.055l-0.027,0.027l0.027,0.188l0.053,0.16l0.08,0.16l0.08,0.136l0.188,0.188l0.187,0.134
		l0.081,0.267l0.081,0.296l0.08,0.24l0.135,0.241l0.133,0.241l0.16,0.215l0.188,0.214l0.214,0.215l0.053-0.296l0.026-0.054
		l0.027-0.106l0.028-0.08l0.026-0.134l0.135-0.296l0.133-0.32l0.161,0.026h0.214l0.241-0.026l0.188-0.026l0.081-0.054l0.106-0.054
		l0.081-0.054l0.081-0.08l0.135-0.188l0.16-0.214l0.162,0.134l0.16,0.08l0.188,0.08l0.187,0.054l0.214,0.055l0.188,0.026h0.213
		l0.215-0.026l0.213-0.027l0.189-0.055l0.188-0.054l0.16-0.079l0.161-0.08l0.134-0.08l0.106-0.107l0.108-0.107l0.081,0.134
		l0.106,0.107l0.106,0.106l0.136,0.106l0.213,0.136l0.242,0.106l0.188,0.081h0.161l0.081-0.027l0.054-0.054l0.026-0.054l0.027-0.135
		v-0.213v-0.268v-0.242v-0.268l0.054-0.054l0.107-0.16v-0.269l-0.027-0.161l0.107-0.375l0.08-0.374l0.027-0.322l-0.027-0.321
		l-0.026-0.214v-0.188l0.026-0.188l0.027-0.16l0.053-0.16l0.054-0.136l0.08-0.134l0.08-0.106l0.215-0.241l0.242-0.188l0.294-0.188
		l0.349-0.187l0.241-0.08l0.214-0.08l0.241-0.027l0.214-0.027l0.188,0.027l0.161,0.027l0.107,0.08l0.081,0.08l0.026,0.106v0.135
		v0.134l-0.026,0.135l-0.027,0.08v0.081l0.027,0.026l0.026,0.026l0.053,0.026h0.054l0.188-0.053l0.161-0.054l0.134-0.081
		l0.081-0.079l0.08-0.108l0.054-0.134l0.027-0.135l0.027-0.106l0.026-0.241v-0.215V127.1v-0.079l0.028-0.053h0.026h0.027
		l0.027,0.053l0.027,0.053l0.053,0.081l0.081,0.241l0.107,0.241l0.08,0.134l0.108,0.134l0.107,0.134l0.107,0.108l0.16,0.08
		l0.162,0.081l0.187,0.053l0.242,0.026h0.081l0.133-0.026h0.054l0.026-0.026l0.027-0.026l0.027-0.055l-0.107-0.215l-0.081-0.215
		l-0.053-0.187v-0.215l-0.026-0.375v-0.375l0.294,0.349l0.321,0.375l0.375,0.348l0.402,0.321l0.188,0.135l0.241,0.108l0.214,0.105
		l0.241,0.054l0.241,0.026h0.241l0.242-0.053l0.268-0.08l0.054-0.053l0.026-0.055v-0.054v-0.053l-0.054-0.108l-0.054-0.081
		l-0.133-0.053l-0.161-0.081l-0.134-0.106l-0.161-0.16l-0.161-0.188l-0.188-0.214l-0.161-0.214l-0.187-0.269l-0.107-0.188
		l-0.081-0.188l-0.053-0.187l-0.027-0.162l-0.054-0.188l-0.053-0.161l-0.054-0.159l-0.081-0.162l-0.107-0.134l-0.134-0.107
		l-0.188-0.106l-0.214-0.08l0.242-0.161l0.321-0.188l0.322-0.188l0.321-0.214l0.322-0.242l0.295-0.268l0.134-0.16l0.134-0.161
		l0.108-0.16l0.107-0.188l0.079-0.215l0.054-0.188l0.027-0.24l0.026-0.216l-0.026-0.267l-0.054-0.214l-0.08-0.189l-0.107-0.187
		l-0.268-0.294l-0.268-0.296l-0.188-0.187l-0.188-0.188l-0.134-0.188l-0.08-0.188l-0.027-0.105v-0.134l0.027-0.161l0.026-0.161
		l0.08-0.214l0.107-0.214l0.134-0.242l0.161-0.187l0.161-0.188l0.187-0.188l0.188-0.136l0.188-0.08l0.428-0.159l0.43-0.081
		l0.428-0.08l0.429-0.054l0.831-0.08l0.724-0.082l0.08,0.67l0.106,0.67l0.107,0.617l0.135,0.588l0.16,0.564l0.215,0.509l0.134,0.268
		l0.134,0.241l0.161,0.215l0.16,0.214l0.295,0.349l0.348,0.321l0.349,0.295l0.349,0.294l0.375,0.296l0.401,0.241l0.403,0.267
		l0.402,0.216l0.561,0.294l0.537,0.241l0.563,0.241l0.535,0.268l0.348,0.188l0.296,0.188l0.215,0.187l0.214,0.188l0.161,0.242
		l0.188,0.24l0.161,0.321l0.214,0.375l0.08,0.295l0.054,0.321l0.081,0.349l0.054,0.349l0.053,0.749l0.027,0.751l-0.027,0.777
		l-0.08,0.805l-0.08,0.373l-0.081,0.377l-0.08,0.4l-0.107,0.376l-0.188,0.027l-0.214,0.053l-0.215,0.055l-0.188,0.079l-0.215,0.106
		l-0.16,0.135l-0.162,0.134l-0.132,0.161l-0.134-0.08l-0.135-0.054l-0.188-0.08l-0.161-0.054l-0.16-0.027h-0.188l-0.161,0.027
		l-0.161,0.027l-0.16,0.079l-0.135,0.081h-0.16l-0.161-0.026h-0.16h-0.08l-0.162-0.107l-0.159-0.081l-0.188-0.055l-0.16-0.026
		h-0.162h-0.187l-0.161,0.055l-0.187,0.081l-0.188,0.134l-0.161,0.134l-0.134,0.16l-0.081,0.133l-0.079,0.108l-0.026,0.054v0.054
		l-0.027,0.054l-0.027,0.053l-0.026,0.081v0.054l-0.027,0.08l-0.027,0.188l-0.026,0.188v0.215v0.213l-0.08,0.188l-0.053,0.188
		l-0.026,0.188v0.161v0.188v0.16l0.053,0.161l0.054,0.162l0.053,0.133l0.081,0.161l0.107,0.134l0.079,0.107l0.134,0.107l0.108,0.105
		l0.134,0.081l0.16,0.081l0.456,0.214l-0.269-0.454v-0.056v-0.079l0.054-0.161l0.107-0.188l0.161-0.161l0.16-0.107l0.081-0.054
		l0.08-0.026l0.08-0.027h0.081l0.026,0.027h0.027l0.054,0.054l0.027,0.081l0.025,0.105l0.027,0.242l0.053,0.294l0.026,0.269
		l0.054,0.269l0.055,0.242l0.081,0.239l0.079,0.215l0.16,0.135l0.082,0.08l0.08,0.027l0.106,0.026l0.107,0.026h0.241l-0.08-0.215
		l-0.027-0.054v-0.026l-0.026-0.135v-0.134V138.3l0.054-0.133l0.106-0.27l0.135-0.24l0.187-0.295l0.188-0.188l0.08,0.268
		l0.135,0.295l0.08,0.134l0.107,0.107l0.106,0.08l0.161,0.081l0.107,0.027l0.079,0.081l0.055,0.078l0.026,0.107l0.054,0.269v0.242
		l0.026,0.239l0.055,0.188l0.053,0.107h0.107l0.188-0.08l0.187-0.08l0.161-0.135l0.134-0.134l0.241-0.375l0.188-0.375l0.026-0.052
		l0.054,0.025h0.054h0.134l0.134-0.025l0.242-0.081l0.214-0.135l0.214-0.161l0.162-0.16l0.187,0.106l0.188,0.08l0.295,0.108
		l0.321,0.026l0.32,0.026l0.35-0.053l0.32-0.108l0.294-0.133l0.136-0.107l0.133-0.081l0.135-0.134l0.107-0.134l0.133-0.16
		l0.108-0.188l0.054,0.055l0.106,0.079l0.106,0.055l0.108,0.053l0.08-0.08l0.269-0.267l0.213-0.323l0.107-0.187l0.055-0.187
		l0.054-0.216l0.027-0.215l0.025-0.134l0.027-0.161v-0.187v-0.215l-0.053-0.509l-0.081-0.536l-0.107-0.59l-0.055-0.562l-0.026-0.269
		l0.026-0.214v-0.188l0.055-0.135l0.053-0.054l0.081-0.054l0.055-0.027h0.078l0.081,0.027l0.081,0.054l0.054,0.08l0.054,0.108
		l0.053,0.161l0.026,0.188l0.081,0.428l0.215-0.375l0.08-0.16l0.08-0.268v-0.136l0.027-0.107l-0.027-0.133v-0.107l-0.054-0.133
		l-0.08-0.136l-0.081-0.106l-0.134-0.081l-0.187-0.08l-0.188-0.053l-0.106-0.026l-0.053-0.054l-0.027-0.027l-0.027-0.053v-0.027
		v-0.027h0.027l0.08-0.081l0.08-0.053h0.107l0.133,0.026l0.135,0.081l0.135,0.134l0.16,0.188l0.16,0.214l0.107,0.242l0.081,0.214
		l0.134,0.563l0.16-0.563l0.027-0.08l0.026-0.106l0.027-0.081l0.026-0.107l0.054-0.375l0.027-0.403l0.026,0.027h0.054l0.16,0.08
		l0.188,0.055l0.215,0.054l0.24,0.053l0.242,0.027l0.214,0.027h0.241l0.214-0.027l0.188-0.053l0.188-0.055l0.24-0.107l0.214-0.134
		l0.161-0.133l0.135-0.188l0.107-0.188l0.079-0.216l0.081-0.266l0.026-0.296l0.107-0.75l-0.375,0.643l-0.026,0.054l-0.027,0.027
		l-0.08,0.106l-0.107,0.108l-0.081,0.054l-0.106,0.08l-0.214,0.08l-0.215,0.054h-0.214h-0.188l-0.188-0.054l-0.161-0.08v-0.026
		h-0.026l-0.188-0.161l-0.135-0.215l-0.16-0.268l-0.134-0.296l-0.107-0.214l-0.107-0.214l-0.107-0.188l-0.134-0.16v-0.026
		l-0.133-0.107l-0.135-0.134l-0.134-0.106l-0.161-0.081l-0.268-0.135l-0.27-0.106l-0.24-0.081l-0.24-0.054l0.054-0.105l0.053-0.107
		l0.107-0.242l0.054-0.215l0.054-0.293v-0.296l-0.027-0.267l-0.054-0.27l-0.081-0.268l-0.105-0.213l-0.107-0.216l-0.107-0.188
		l-0.107-0.134l-0.134-0.106l-0.135-0.108l-0.16-0.107l-0.321-0.213l-0.348-0.188l-0.296-0.135l-0.241-0.133l-0.241-0.16
		l-0.188-0.161l-0.16-0.187l-0.135-0.216l-0.105-0.24l-0.081-0.27l-0.082-0.32l-0.079-0.323l-0.027-0.373l-0.026-0.403v-0.4v-0.402
		l0.026-0.375l0.027-0.375l0.079-0.724l0.082-0.75l0.402,0.161l0.375,0.105l0.374,0.055l0.375,0.053l0.349-0.027l0.375-0.025
		l0.348-0.055l0.322-0.08l0.322-0.106l0.294-0.106l0.295-0.135l0.268-0.135l0.215-0.16l0.214-0.133l0.161-0.161l0.161-0.135
		l0.134-0.161l0.134-0.134l0.161-0.106l0.133-0.08l0.135-0.054h0.107h0.106l0.081,0.054l0.08,0.08l0.026,0.054l0.027,0.079v0.081
		l-0.027,0.053l-0.026,0.054l-0.054,0.081l-0.054,0.054l-0.321,0.161l-0.295,0.134l0.241,0.16l0.268,0.161l0.241,0.107l0.242,0.054
		l0.24,0.054l0.215-0.026l0.214-0.027l0.188-0.08l0.161-0.081l0.16-0.135l0.134-0.16l0.134-0.16l0.081-0.215l0.054-0.241l0.027-0.24
		v-0.296l-0.027-0.293l0.188-0.027l0.161-0.026l0.321-0.107l0.321-0.162l0.134-0.08l0.134-0.107l0.134-0.134l0.134-0.106l0.107-0.16
		l0.081-0.136l0.08-0.161l0.08-0.186l0.055-0.188l0.025-0.188l0.027-0.215v-0.213l-0.027-0.323l-0.053-0.347l-0.054-0.135
		l-0.054-0.107l-0.08-0.161l-0.081-0.134l-0.107-0.106l-0.106-0.135l-0.134-0.107l-0.135-0.08l-0.16-0.107l-0.161-0.08l-0.268-0.107
		l-0.241-0.052l-0.268-0.054h-0.268l-0.242,0.054l-0.24,0.079l-0.215,0.107l-0.241,0.188l0.295-0.027l0.348,0.054l0.135,0.134
		l0.134,0.188l0.08,0.187l0.054,0.215l0.027,0.215v0.24l-0.027,0.214l-0.054,0.216l-0.08,0.187l-0.107,0.161l-0.107,0.106
		l-0.133,0.107l-0.055,0.028h-0.08h-0.08h-0.08l-0.188-0.081l-0.188-0.134l0.026-0.269l-0.026-0.322l-0.027-0.4l-0.081-0.402
		l-0.106-0.456l-0.161-0.429l-0.08-0.186l-0.107-0.216l-0.106-0.188l-0.107-0.161l-0.188-0.348l-0.214-0.349l-0.296-0.349
		l-0.321-0.375l-0.428-0.535l-0.456-0.509l-0.455-0.482l-0.483-0.482c-4.795-4.02-9.404-10.286-7.206-12.924
		c2.197-2.639,6.066-0.88,6.066-0.88c-2.989,1.1-0.319,4.078-0.319,4.078c3.397,2,11.391-6.05,0.299-7.546
		c-11.091-1.497-10.361,8.563-10.361,8.563l0.107,0.563l0.162,0.509l0.106,0.242l0.106,0.239l0.136,0.216l0.133,0.215l0.106,0.16
		l0.108,0.133l0.16,0.135l0.135,0.134l0.321,0.215l0.349,0.187l0.267,0.134l0.215,0.081l0.188,0.026l0.161,0.027l0.349,0.054
		l0.509,0.081l0.054,0.428l0.026,0.43l0.054,0.428l0.079,0.402l0.109,0.402l0.134,0.347l0.105,0.135l0.081,0.135l0.134,0.134
		l0.134,0.106l0.537,0.348l0.616,0.403l0.348,0.187l0.322,0.161l0.32,0.134l0.296,0.081l0.375,0.106l0.776,0.67l0.776,0.697
		l0.725,0.723l0.724,0.696l0.349,0.376l0.348,0.375l0.295,0.349l0.295,0.348l0.241,0.349l0.214,0.321l0.161,0.295l0.133,0.294
		l0.055,0.135l0.026,0.107l0.054,0.268l0.027,0.269v0.24l-0.027,0.269l-0.054,0.241l-0.054,0.24l-0.08,0.215l-0.08,0.215
		l-0.107,0.213l-0.107,0.161l-0.108,0.161l-0.132,0.162l-0.108,0.106l-0.107,0.106l-0.106,0.08l-0.107,0.054h-0.026l-0.268,0.054
		l-0.241,0.054h-0.215h-0.241l-0.215-0.027l-0.214-0.054l-0.187-0.053l-0.189-0.081l-0.187-0.105l-0.188-0.108l-0.159-0.134
		l-0.162-0.134l-0.322-0.321l-0.266-0.349l-0.269-0.401l-0.242-0.43l-0.214-0.455l-0.214-0.455l-0.349-0.965l-0.322-0.938
		l-0.188-0.562l-0.187-0.509l-0.188-0.456l-0.187-0.402l-0.269-0.482l-0.348-0.482l-0.349-0.481l-0.403-0.482l-0.829-0.91
		l-0.804-0.858l-0.081-0.081l-0.187-0.16l-0.162-0.187l-0.187-0.189l-0.43-0.453l-0.294-0.35c-3.214-1.97-3.465-7.97-0.344-11.355
		c3.121-3.384,7.541-2.709,7.541-2.709L-302.745,87.931z"/>
</g>
<path fill-rule="evenodd" clip-rule="evenodd" d="M69.113,46.218c-1.904-2.244-5.273-0.829-5.273-0.829
	c1.611-2.686-1.807-6.005-1.807-6.005c-3.416-2.49-1.563-4.59-1.563-4.59l2.832-3.955c2.1-3.759-4.053,1.514-4.053,1.514
	c-2,1.757-2.635,0.683-2.635,0.683c-0.684-1.171,1.512-2.441,1.512-2.441c6.201-3.808,5.127-4.54,5.127-4.54
	c-0.537-1.66-7.615,2.832-7.615,2.832l5.713-4.638c3.465-4.297-5.178,0.732-5.178,0.732l4.15-3.564
	c2.148-1.611-4.051,0.634-4.051,0.634c4.424-2.813,8.787-7.812,8.787-7.812c6.104-7.616-0.977-11.278-0.977-11.278
	C58.324,0.715,53.93,6.916,53.93,6.916c-1.318,1.367-2.979-1.807-2.979-1.807c-1.318,3.271,2.1,5.908,2.1,5.908
	c-4.199,4.345,0.391,7.167,0.391,7.167c-0.439-2.989,1.367-3.651,1.367-3.651c3.027-1.074,3.156-3.043,3.156-3.043
	c3.158,1.921,4.557-1.791,4.557-1.791c-2.051,0.846-3.287-0.814-3.287-0.814c-0.943-2.213,0.895-3.581,0.895-3.581
	c2.734-1.757,4.834,1.514,4.834,1.514c2.686,4.736-9.08,12.108-9.08,12.108c-4.785,3.613-3.516,5.664-3.516,5.664
	c-4.297,2.002-0.977,5.517-0.977,5.517c-1.221,2.832,1.27,3.808,1.27,3.808c-0.342,3.711,3.32,3.369,3.32,3.369l3.074,3.418
	c3.857,4.003,0.781,5.955,0.781,5.955c-2.586,1.417-3.563-0.829-3.563-0.829c-1.709-2.441-3.58-3.027-3.58-3.027
	c-7.943-2.538-7.746-5.013-7.746-5.013c-0.326-4.882-2.996-8.137-2.996-8.137c-1.367-2.017-0.277-4.549-0.277-4.549
	c1.197,0.805,2.816,3.963,2.816,3.963c0.131-2.148-0.863-5.697-0.863-5.697c2.295-0.683,1.953,7.958,1.953,7.958
	c1.709-4.346,0.391-12.352,0.391-12.352c1.514,2.587,1.953,8.642,1.953,8.642c1.514-4.541-0.732-10.692-0.732-10.692
	c2.344,0.635,2.979,6.054,2.979,6.054c1.27-10.692-4.98-12.792-4.98-12.792c1.416-0.976,3.418-0.244,3.418-0.244
	c-0.244-1.513-2.686-1.806-2.686-1.806c0.635-1.514,3.32-2.539,3.32-2.539c-1.758-1.562-4.199,0.244-4.199,0.244
	c0.83-2.734,3.516-3.613,3.516-3.613c-1.904-1.416-4.639,0.586-4.639,0.586c0-1.807,3.207-2.393,3.207-2.393
	c-2.832-1.074-5.893,1.237-5.893,1.237c-7.551-1.172-7.029,1.302-7.029,1.302c-4.428,0.912-2.734,4.882-2.734,4.882
	C32.594,8.723,34.4,7.6,34.4,7.6c2.344-0.732,2.539,1.171,2.539,1.171c0.129,0.283,0.191,0.524,0.203,0.73
	c-0.18,0.017-0.365,0.026-0.559,0.032C36.371,9.54,36.154,9.56,35.93,9.56c-0.225,0-0.455,0.001-0.691,0.002
	c-0.234-0.008-0.475-0.017-0.719-0.025s-0.492-0.037-0.742-0.055c-0.252-0.019-0.502-0.062-0.758-0.088
	c-0.254-0.03-0.506-0.083-0.762-0.123c-0.256-0.048-0.508-0.108-0.762-0.162c-0.506-0.126-1.008-0.262-1.488-0.438
	c-0.484-0.165-0.949-0.362-1.393-0.563c-0.438-0.215-0.859-0.426-1.242-0.66c-0.383-0.231-0.738-0.462-1.055-0.694
	c-0.635-0.459-1.127-0.895-1.451-1.22c-0.326-0.324-0.494-0.529-0.494-0.529c0,0,0.037,0.056,0.107,0.157
	c0.074,0.099,0.18,0.248,0.332,0.423c0.15,0.175,0.336,0.387,0.566,0.614c0.229,0.229,0.494,0.48,0.805,0.73
	c0.305,0.255,0.654,0.513,1.037,0.764c0.381,0.254,0.801,0.492,1.246,0.722c0.449,0.216,0.918,0.438,1.416,0.609
	c0.492,0.184,1.006,0.329,1.521,0.462c0.262,0.054,0.521,0.113,0.783,0.16c0.264,0.039,0.523,0.09,0.783,0.119
	c0.521,0.068,1.037,0.097,1.535,0.114C34.756,9.878,35,9.885,35.24,9.881c0.238-0.011,0.473-0.021,0.701-0.032
	s0.449-0.038,0.662-0.057c0.184-0.017,0.359-0.037,0.529-0.062c-0.127,0.886-1.316,0.945-1.316,0.945
	c-4.15,0.195-4.834,0.782-4.834,0.782c-2.002,3.808,4.98,1.757,4.98,1.757c3.271,0.585-0.684,2.929-0.684,2.929
	c-6.787-1.025-10.498,2.441-10.498,2.441c-5.371,0.635-9.861-7.958-9.861-7.958c2.49-1.611,1.416-2.685,1.416-2.685
	c2.002-2.93-1.221-5.176-1.221-5.176c1.367,2.295-0.195,3.467-0.195,3.467c-0.635,0-2.344,1.563-2.344,1.563
	c1.025-3.076-0.244-3.905-0.244-3.905c-1.465-3.809-5.42-1.319-5.42-1.319c2.148-0.635,3.467,1.611,3.467,1.611
	c-1.486,1.28-0.695,3.342-0.107,4.437C9.406,7.562,8.426,8.088,8.426,8.088C6.131,5.109,3.396,8.332,3.396,8.332
	c1.758-0.781,3.076,0.683,3.076,0.683c-0.439,1.123,2.197,2.002,2.197,2.002c1.465,0.293,0.537,1.367,0.537,1.367
	c-2.197,1.22-4.621-2.588-4.621-2.588c-1.303,6.575,4.881,5.338,4.881,5.338c0.652,1.563,2.67,2.474,2.67,2.474
	c-1.367,2.474,1.563,2.799,1.563,2.799c-0.391,2.083,1.236,1.433,1.236,1.433c-1.498,3.579,2.148,3.125,2.148,3.125
	c2.475,2.539,4.523,2.066,4.523,2.066c-4.441,5.957-8.934,4.199-8.934,4.199c-0.293-3.076-1.758-2.636-1.758-2.636
	c-2.783-2.734-5.518,0.391-5.518,0.391C8.133,28.3,8.621,29.96,8.621,29.96c-0.244,0.879,1.563,2.881,1.563,2.881
	c-1.27-1.172-3.076-0.538-3.076-0.538c-2.979-2.831-5.127,0.863-5.127,0.863c1.824-1.562,4.102,0.846,4.102,0.846
	c-0.26,1.367,3.906,1.432,3.906,1.432C5.887,35.706,6.342,37.5,6.342,37.5c-4.166,0.296-2.604,3.348-2.604,3.348
	C4,38.83,6.799,39.612,6.799,39.612c0.848,1.887,3.516-1.498,3.516-1.498c1.496,3.255-0.781,4.166-0.781,4.166
	c4.49,2.408,4.947-5.273,4.947-5.273c5.664,3.255,9.764-3.711,9.764-3.711c0.586,1.042,0.326,1.953,0.326,1.953
	c1.434-1.042,1.627-1.823,1.627-1.823c2.148,3.45,1.498,5.924,1.498,5.924c1.887-1.236,1.887-3.58,1.887-3.58
	c0.521,3.58,4.818,4.557,4.818,4.557c-1.041,1.042-5.598,0.847-5.598,0.847c-6.9,0.521-3.32,4.427-3.32,4.427
	c5.143,4.295,0.813,6.965,0.813,6.965c-4.297,2.148-5.518-1.416-5.518-1.416c-0.389-2.588-2.586-1.514-2.586-1.514
	c-3.174-2.831-5.615,1.465-5.615,1.465c1.221-1.659,4.395,0.098,4.395,0.098c-0.195,1.074,1.316,3.32,1.316,3.32
	c-3.514-2.002-4.1-0.586-4.1-0.586c-4.004-1.221-3.271,3.271-3.271,3.271c0.537-2.49,2.998-1.025,2.998-1.025
	c-0.127,1.514,4.033,1.807,4.033,1.807c-6.104,2.393-3.467,6.444-3.467,6.444c-0.049-2.49,2.879-2.783,2.879-2.783
	c2.1,0.538,2.93-3.026,2.93-3.026c2.783,3.368-0.732,5.81-0.732,5.81c6.689,0,4.883-6.005,4.883-6.005c3.971,5.142,3.385,0,3.385,0
	c2.344,2.669,1.693-1.758,1.693-1.758c2.67,2.539,2.67,1.107,2.67,1.107c-0.781-2.995,1.822-1.238,1.822-1.238
	c2.082,2.148,2.473-1.041,2.473-1.041c0.717-3.385-2.604-6.966-2.604-6.966c3.775,2.733,8.008,0.261,8.008,0.261
	c4.297,8.984,0.422,12.563,0.422,12.563c3.76-0.536,4.199-3.743,4.199-3.743c4.818,2.148,4.818,4.199,4.818,4.199
	c0.162,2.929-2.02,1.595-2.02,1.595c-3.613-3.873-6.086,0.879-6.086,0.879c4.197-1.921,4.197,1.627,4.197,1.627
	c-4.459-1.919-6.477,2.278-6.477,2.278c3.484-2.18,6.641,0.424,6.641,0.424c-3.059,4.004,0.131,6.25,0.131,6.25
	c0.098-4.948,3.482-5.99,3.482-5.99c3.547,0.847,1.594,4.85,1.594,4.85c4.559-0.977,1.678-6.021,1.678-6.021
	c2.734-0.537,3.857-2.538,3.857-2.538c5.564-0.439,0.439-1.709,0.439-1.709c0.584-2.245-0.928-4.638-0.928-4.638
	c5.174-2.344-0.49-1.367-0.49-1.367c-0.584-1.758-5.26-2.799-5.26-2.799c-3.406-3.971-0.305-8.854-0.305-8.854
	c9.439,10.48,15.037,1.839,15.037,1.839c5.176,3.71,6.201,0.097,6.201,0.097C71.604,48.903,69.113,46.218,69.113,46.218z"/>
</svg>
